<?xml version="1.0" encoding="UTF-8"?>
<!DOCTYPE svg PUBLIC "-//W3C//DTD SVG 1.1//EN" "http://www.w3.org/Graphics/SVG/1.1/DTD/svg11.dtd">
<!-- Creator: CorelDRAW X8 -->
<svg xmlns="http://www.w3.org/2000/svg" xml:space="preserve" width="256px" height="256px" version="1.1" style="shape-rendering:geometricPrecision; text-rendering:geometricPrecision; image-rendering:optimizeQuality; fill-rule:evenodd; clip-rule:evenodd"
viewBox="0 0 256 256"
 xmlns:xlink="http://www.w3.org/1999/xlink">
 <defs>
  <style type="text/css">
   <![CDATA[
    .fil1 {fill:#1EB569}
    .fil0 {fill:#C9EED5}
   ]]>
  </style>
 </defs>
 <g id="Capa_x0020_1">
  <metadata id="CorelCorpID_0Corel-Layer"/>
  <ellipse class="fil0" cx="132" cy="130" rx="122" ry="123"/>
  <g id="_2203862029760">
   <path class="fil1" d="M80 171c0,10 4,14 14,14 0,10 4,14 14,14 0,15 15,18 23,7 6,1 8,3 14,-1 3,-2 5,-6 5,-12 9,0 14,-4 14,-13 10,-1 12,-4 14,-14 11,-1 15,-7 13,-18 5,-6 25,-23 27,-31 2,-10 -6,-15 -10,-19 -5,-5 -26,-27 -30,-29 -16,-10 -25,14 -37,19 -4,2 -7,3 -10,0 -18,-16 -26,-36 -44,-18 -10,10 -20,20 -30,30 -14,16 8,26 14,35 2,3 4,9 2,12 -1,2 -5,4 -6,8 -3,10 4,16 13,16z"/>
   <g>
    <path class="fil0" d="M68 125c6,7 9,5 11,19 9,0 15,3 15,13 9,1 14,5 14,14 9,1 13,5 13,14 12,1 14,6 14,17 5,1 9,-1 10,-5 2,-6 -5,-10 -12,-17 -2,-2 -7,-5 -5,-9 6,-4 18,26 29,16 10,-10 -19,-23 -15,-29 2,-4 8,4 13,9 3,3 10,12 16,5 9,-10 -19,-23 -16,-28 2,-1 -2,-1 3,-1 1,0 1,1 2,2l13 13c3,2 7,5 11,1 4,-3 3,-8 0,-11 -5,-6 -11,-12 -17,-17 -3,-3 -5,-6 -8,-9 -3,-3 -6,-4 -9,-8 -5,2 -6,5 -14,5 -11,0 -6,-2 -13,5 -6,5 -15,16 -27,7 -10,-8 -4,-19 3,-27 7,-6 12,-14 27,-14l-12 -11 -46 46z"/>
    <path class="fil0" d="M150 108c4,2 30,31 38,36 4,-5 12,-10 14,-16l-46 -46c-17,15 -8,11 -32,13 -12,1 -26,16 -27,19 -3,8 1,14 7,15 7,1 12,-5 15,-8 9,-9 6,-8 14,-7 10,1 12,-4 17,-6z"/>
    <path class="fil0" d="M106 177c-11,5 -8,21 3,16 3,-1 8,-5 8,-10 -1,-5 -6,-8 -11,-6z"/>
    <path class="fil0" d="M92 164c-14,7 -5,20 4,15 11,-7 6,-20 -4,-15z"/>
    <path class="fil0" d="M120 191c-13,7 -6,20 3,16 1,0 8,-5 7,-10 0,-5 -5,-9 -10,-6z"/>
    <path class="fil0" d="M78 150c-12,7 -5,20 4,16 1,-1 7,-6 7,-11 -1,-5 -6,-8 -11,-5z"/>
   </g>
  </g>
 </g>
</svg>
