<?xml version="1.0" encoding="UTF-8"?>
<!DOCTYPE svg PUBLIC "-//W3C//DTD SVG 1.1//EN" "http://www.w3.org/Graphics/SVG/1.1/DTD/svg11.dtd">
<!-- Creator: CorelDRAW X8 -->
<svg xmlns="http://www.w3.org/2000/svg" xml:space="preserve" width="48px" height="48px" version="1.1" style="shape-rendering:geometricPrecision; text-rendering:geometricPrecision; image-rendering:optimizeQuality; fill-rule:evenodd; clip-rule:evenodd"
viewBox="0 0 48 48"
 xmlns:xlink="http://www.w3.org/1999/xlink">
 <defs>
  <style type="text/css">
   <![CDATA[
    .fil4 {fill:#206398}
    .fil1 {fill:#398EBA}
    .fil3 {fill:#587DFE}
    .fil2 {fill:#58C37F}
    .fil0 {fill:white}
    .fil5 {fill:url(#id0);fill-rule:nonzero}
   ]]>
  </style>
  <linearGradient id="id0" gradientUnits="userSpaceOnUse" x1="2.6458" y1="22.768" x2="45.8101" y2="22.768">
   <stop offset="0" style="stop-opacity:1; stop-color:#398EBA"/>
   <stop offset="1" style="stop-opacity:1; stop-color:#58C37F"/>
  </linearGradient>
 </defs>
 <g id="Capa_x0020_1">
  <metadata id="CorelCorpID_0Corel-Layer"/>
  <ellipse class="fil0" cx="24" cy="23" rx="20" ry="19"/>
  <g id="_2602733154432">
   <path class="fil1" d="M14 18c0,0 5,0 5,0 2,0 3,0 3,-2 0,-1 0,-2 0,-3 0,-2 -2,-2 -3,-2l-7 0c-1,0 -1,0 -1,1 0,2 0,3 0,5l0 4c0,1 0,1 1,1 3,0 2,1 2,-4z"/>
   <path class="fil2" d="M35 27c0,0 0,0 1,0 0,0 1,0 1,0 0,-1 0,-2 0,-3 0,0 -1,-1 -1,-1 -1,0 -4,0 -5,0 -2,0 -4,0 -4,2 0,0 0,1 0,2 0,1 0,1 0,2 1,1 3,1 4,1 1,0 2,0 3,0 1,0 1,0 1,1 0,1 0,1 -1,1 -1,0 -2,0 -3,0 0,0 -2,1 -2,0 0,0 0,-1 0,-1 0,0 -1,0 -1,0 -2,0 -2,0 -2,1 1,3 3,2 6,2 1,0 4,1 4,0 2,0 2,-2 2,-4 0,-2 -1,-2 -3,-2 -1,0 -5,0 -5,0 0,0 -1,0 -1,-1 0,0 0,-1 0,-1 0,-1 1,-1 2,-1 1,0 2,0 3,0 1,0 0,1 1,2z"/>
   <path class="fil0" d="M14 16l4 0c2,0 2,0 2,-1 0,-1 0,-2 -1,-2 0,0 -3,0 -3,0 -1,0 -2,0 -2,0l0 3z"/>
   <path class="fil2" d="M22 21c1,0 1,0 2,1 0,0 0,1 0,2 1,0 3,0 3,-1 0,-1 0,-1 -1,-2 0,0 -1,0 -2,0 0,-1 1,-3 -1,-3 -2,0 -1,2 -1,3z"/>
   <path class="fil3" d="M24 24c-1,0 -1,0 -2,-1 0,0 0,-1 0,-2 -1,0 -2,0 -2,0 -1,1 -2,2 0,3 0,0 1,0 2,0 0,1 -1,3 1,3 1,0 1,-1 1,-1 0,0 0,-2 0,-2z"/>
   <path class="fil4" d="M24 24c0,-1 0,-2 0,-2 -1,-1 -1,-1 -2,-1 0,1 0,2 0,2 1,1 1,1 2,1z"/>
   <path class="fil5" d="M24 2c6,0 12,3 15,6 4,4 7,9 7,15 0,5 -3,11 -7,14 -3,4 -9,6 -15,6 -6,0 -11,-2 -15,-6 -4,-3 -6,-9 -6,-14 0,-6 2,-11 6,-15 4,-3 9,-6 15,-6zm14 8c-3,-4 -8,-6 -14,-6 -5,0 -10,2 -14,6 -3,3 -5,8 -5,13 0,5 2,10 5,13 4,3 9,5 14,5 6,0 11,-2 14,-5 4,-3 6,-8 6,-13 0,-5 -2,-10 -6,-13z"/>
  </g>
 </g>
</svg>
